<svg xmlns="http://www.w3.org/2000/svg" version="1.1" xmlns:xlink="http://www.w3.org/1999/xlink" xmlns:svgjs="http://svgjs.dev/svgjs" width="1000" height="1000" viewBox="0 0 1000 1000"><rect width="1000" height="1000" fill="#ffffff"></rect><g transform="matrix(0.7,0,0,0.7,149.57575757575756,252.55025142620056)"><svg viewBox="0 0 396 280" data-background-color="#046380" preserveAspectRatio="xMidYMid meet" height="707" width="1000" xmlns="http://www.w3.org/2000/svg" xmlns:xlink="http://www.w3.org/1999/xlink"><g id="tight-bounds" transform="matrix(1,0,0,1,0.2400000000000091,0.0001422496184488864)"><svg viewBox="0 0 395.52 280" height="280" width="395.52"><g><svg viewBox="0 0 395.52 280" height="280" width="395.52"><g><svg viewBox="0 0 395.52 280" height="280" width="395.52"><g><svg viewBox="0 0 395.52 280" height="280" width="395.52"><g><svg viewBox="0 0 395.52 280" height="280" width="395.52"><g transform="matrix(1,0,0,1,95.65203525306555,57.50420886156945)"><svg viewBox="0 0 204.21592949386888 164.9915822768611" height="164.9915822768611" width="204.21592949386888"><g><circle r="82" cx="102.10796474693444" cy="82.49579113843055" fill="#000000" data-fill-palette-color="accent"></circle><svg xmlns="http://www.w3.org/2000/svg" xmlns:xlink="http://www.w3.org/1999/xlink" version="1.1" x="34.95935926186291" y="34.959359261862915" viewBox="5.020999908447266 17.23200035095215 89.99998474121094 68.9729995727539" enable-background="new 0 0 100 100" xml:space="preserve" height="95.07286375313527" width="134.29721097014308" class="icon-o-0" data-fill-palette-color="quaternary" id="o-0"><g fill="#046380" data-fill-palette-color="quaternary"><path d="M80.609 35.165l12.494 1.794 0.291-0.903-26.207-13.73-16.664-4.944-0.552-0.15-0.454 0.15-16.75 4.979L6.645 36.056l0.29 0.903L19.397 35.2 5.021 50.921l15.154 8.668v9.396 0.149l29.343 16.784 0.503 0.287 0.502-0.287 29.101-16.646 0.242-0.139v-0.15-9.395l15.155-8.668L80.609 35.165zM78.902 67.324v0.555 0.555 0.144L50.523 84.811l-0.043 0.023V53.246l0.043 0.046 14.262 14.922 6.867-3.928 0.484-0.277 0.484-0.276 6.281-3.592V67.324L78.902 67.324zM46.206 19.368L28.641 29.415l-7.98 4.564-0.164 0.094 0 0-0.079 0.011L9.551 35.618l23.576-12.37L46.206 19.368zM53.827 19.363l13 3.85 23.659 12.405-10.863-1.533-0.08-0.011-0.164-0.094-5.898-3.375L53.827 19.363zM49.518 51.091l-0.071 0.041L21.61 34.545l16.345-9.349 11.563-6.614V51.091zM20.655 35.25l0.008-0.008 0.083-0.091 0.391 0.233 5.427 3.234 21.924 13.063 0.475 0.281 0.315 0.188-0.008 0.009-0.384 0.401L35.08 67.006l-5.724-3.273-0.485-0.276-0.485-0.276-7.25-4.147-0.481-0.274-0.481-0.275L6.542 50.684l13.633-14.908L20.655 35.25zM78.902 59.03l-7.25 4.146-0.483 0.277-0.485 0.277-5.724 3.273L51.156 52.562l-0.385-0.403-0.008-0.009 0.313-0.188 0.475-0.281 21.933-13.07 5.418-3.228 0.392-0.233 0.084 0.091 0.007 0.007 0.48 0.526 13.633 14.907L79.865 58.48l-0.48 0.274L78.902 59.03z" fill="#046380" data-fill-palette-color="quaternary"></path></g></svg></g></svg></g><path d="M85.527 83.468C86.554 84.291 87.444 85.495 88.197 87.081 88.954 88.676 89.393 90.492 89.514 92.529 89.628 94.564 89.302 96.621 88.535 98.701V98.701C87.366 101.869 85.738 103.908 83.65 104.817 81.556 105.724 79.303 105.733 76.89 104.843V104.843C73.46 103.577 70.631 101.665 68.405 99.106 66.181 96.541 64.748 93.667 64.104 90.485 63.469 87.299 63.707 84.198 64.819 81.184V81.184C65.261 79.987 65.935 78.996 66.843 78.211 67.75 77.427 68.821 76.938 70.055 76.746 71.298 76.55 72.608 76.706 73.984 77.214V77.214C74.764 77.502 75.318 78.041 75.645 78.83 75.974 79.613 75.957 80.498 75.593 81.483V81.483C75.305 82.264 74.903 82.715 74.385 82.837 73.87 82.952 73.289 82.891 72.643 82.652V82.652L71.409 82.153C70.942 81.981 70.392 82.073 69.759 82.428 69.126 82.784 68.728 83.182 68.565 83.624V83.624C68.027 85.083 68.093 86.925 68.763 89.15 69.435 91.368 70.661 93.485 72.44 95.501 74.219 97.517 76.405 99.003 78.997 99.959V99.959C80.193 100.401 81.342 100.294 82.442 99.638 83.535 98.98 84.346 97.934 84.875 96.5V96.5C85.047 96.033 85.118 95.369 85.087 94.506 85.052 93.636 84.918 92.797 84.684 91.991 84.453 91.179 84.155 90.589 83.789 90.221V90.221C83.252 89.667 82.688 88.957 82.098 88.092 81.504 87.219 81.312 86.498 81.523 85.928V85.928C82.011 84.603 82.629 83.806 83.376 83.536 84.122 83.266 84.839 83.243 85.527 83.468ZM135.863 35.505C135.544 36.753 135.13 37.796 134.621 38.632 134.106 39.472 133.38 40.192 132.444 40.791V40.791C130.91 41.773 129.424 42.052 127.986 41.628 126.539 41.202 125.309 40.199 124.298 38.619V38.619C123.996 38.148 123.739 37.588 123.526 36.938V36.938L120.028 26.312C119.839 25.712 119.846 25.173 120.05 24.694 120.253 24.216 120.763 23.715 121.579 23.193V23.193C122.791 22.417 123.614 22.368 124.048 23.046V23.046C124.228 23.327 124.428 23.823 124.648 24.533V24.533L128.315 35.404C128.416 35.728 128.557 36.03 128.738 36.312V36.312C129.05 36.8 129.433 37.114 129.887 37.253 130.34 37.392 130.845 37.283 131.403 36.926V36.926C132.127 36.463 132.774 35.753 133.344 34.796 133.914 33.84 134.295 32.872 134.485 31.891V31.891L133.392 28.703C132.639 26.553 131.86 24.209 131.053 21.672V21.672C130.712 20.57 130.557 19.592 130.586 18.739 130.611 17.881 131.066 17.168 131.951 16.602V16.602C133.186 15.811 134.043 15.789 134.521 16.536V16.536C134.598 16.657 134.663 16.822 134.716 17.031 134.769 17.24 134.822 17.412 134.877 17.548V17.548L136.789 23.078C138.828 28.933 140.117 32.692 140.655 34.356V34.356C141.54 37.078 142.022 39.35 142.101 41.17 142.187 42.986 141.84 44.557 141.06 45.882 140.277 47.201 138.986 48.437 137.188 49.588V49.588C136.05 50.316 135.009 50.752 134.064 50.895 133.122 51.044 132.332 50.991 131.691 50.737 131.054 50.489 130.609 50.167 130.355 49.77V49.77C129.623 48.627 129.886 47.652 131.145 46.847V46.847C131.495 46.623 131.828 46.511 132.144 46.511 132.451 46.509 132.805 46.562 133.206 46.67V46.67C133.766 46.773 134.241 46.813 134.631 46.79 135.027 46.763 135.481 46.586 135.992 46.259V46.259C136.389 46.005 136.731 45.559 137.019 44.921 137.298 44.281 137.445 43.462 137.462 42.463 137.479 41.464 137.305 40.344 136.94 39.104V39.104ZM214.289 14.985C213.915 15.853 213.221 16.711 212.207 17.56 211.192 18.408 209.924 19.082 208.401 19.583 206.872 20.083 205.225 20.286 203.461 20.194V20.194C200.75 20.051 198.773 19.387 197.531 18.201 196.295 17.016 195.725 15.524 195.82 13.725V13.725C195.957 11.123 196.744 8.747 198.183 6.595 199.628 4.438 201.506 2.767 203.816 1.584 206.125 0.408 208.55-0.113 211.091 0.02V0.02C212.665 0.103 213.945 0.632 214.932 1.606 215.925 2.587 216.381 3.868 216.297 5.448V5.448C216.265 6.055 215.987 6.546 215.462 6.921 214.943 7.297 214.272 7.463 213.448 7.419V7.419C212.78 7.384 212.338 7.207 212.123 6.889 211.901 6.57 211.803 6.161 211.829 5.664V5.664L211.92 4.716C211.937 4.382 211.774 4.104 211.431 3.881 211.081 3.651 210.698 3.525 210.283 3.503V3.503C209.424 3.457 208.243 3.911 206.738 4.863 205.233 5.809 203.891 7.087 202.714 8.699 201.536 10.317 200.896 12.08 200.796 13.987V13.987C200.755 14.757 201.027 15.366 201.612 15.813 202.196 16.261 203.084 16.516 204.276 16.578V16.578C205.019 16.618 205.882 16.509 206.865 16.254 207.848 16.005 208.478 15.652 208.755 15.195V15.195C209.786 13.528 210.686 12.715 211.455 12.755V12.755C212.593 12.815 213.352 13.07 213.731 13.521 214.103 13.971 214.289 14.459 214.289 14.985ZM292.898 22.751L287.181 27.44C276.778 36.072 270.787 40.972 269.209 42.14V42.14C269.067 42.238 268.711 42.24 268.142 42.145 267.578 42.044 267.219 41.937 267.066 41.822V41.822C266.445 41.354 265.963 40.753 265.62 40.017 265.276 39.271 265.341 38.539 265.814 37.819V37.819C265.868 37.792 266.154 37.644 266.672 37.376 267.184 37.104 267.832 36.657 268.616 36.035V36.035C270.554 34.513 272.832 32.693 275.451 30.574 278.063 28.451 279.814 27.032 280.702 26.317V26.317L287.031 21.155C287.144 20.958 287.824 20.032 289.071 18.374V18.374C289.354 18.135 289.776 18.09 290.338 18.239 290.904 18.383 291.364 18.589 291.718 18.855V18.855C292.269 19.269 292.697 19.886 293.003 20.705 293.309 21.524 293.273 22.206 292.897 22.751ZM308.569 96.143C307.65 93.588 307.487 91.541 308.078 90.001 308.672 88.468 309.816 87.397 311.511 86.787V86.787C313.989 85.896 316.503 85.691 319.054 86.173 321.609 86.645 323.879 87.695 325.864 89.323 327.842 90.953 329.262 92.965 330.123 95.359V95.359C330.647 96.816 330.679 98.186 330.22 99.467 329.756 100.758 328.728 101.689 327.136 102.262V102.262C326.225 102.59 325.371 102.564 324.574 102.183 323.78 101.809 322.958 101.156 322.107 100.222 321.259 99.295 319.978 97.758 318.263 95.613V95.613C316.735 93.662 315.476 92.085 314.485 90.883V90.883C314.054 90.915 313.63 91.005 313.213 91.156V91.156C312.487 91.416 312.04 91.925 311.87 92.683 311.698 93.433 311.814 94.37 312.218 95.493V95.493C312.47 96.193 312.904 96.947 313.521 97.754 314.131 98.564 314.7 99.008 315.229 99.086V99.086C317.165 99.39 318.263 99.905 318.524 100.63V100.63C318.91 101.702 318.969 102.5 318.7 103.024 318.43 103.542 318.052 103.903 317.567 104.106V104.106C316.622 104.098 315.562 103.791 314.387 103.184 313.211 102.578 312.098 101.67 311.047 100.46 309.993 99.244 309.167 97.805 308.569 96.143ZM318.468 90.679C320.23 92.959 321.771 94.804 323.09 96.214 324.401 97.621 325.409 98.197 326.115 97.943V97.943C326.43 97.829 326.623 97.571 326.696 97.168 326.773 96.757 326.74 96.355 326.6 95.963V95.963C326.318 95.18 325.695 94.397 324.732 93.612 323.774 92.826 322.711 92.157 321.542 91.606 320.372 91.056 319.347 90.747 318.468 90.679ZM80.143 197.65C78.671 197.717 77.029 197.355 75.215 196.566 73.395 195.78 71.684 194.572 70.082 192.942 68.472 191.309 67.222 189.329 66.332 187.004V187.004C64.977 183.461 64.848 180.535 65.943 178.224 67.042 175.905 68.943 174.229 71.644 173.195V173.195C75.473 171.731 79.277 171.258 83.054 171.778 86.832 172.298 90.17 173.665 93.069 175.879 95.964 178.102 98.057 180.899 99.346 184.269V184.269C99.857 185.607 100.018 186.945 99.828 188.281 99.638 189.617 99.092 190.823 98.188 191.899 97.288 192.981 96.07 193.816 94.534 194.403V194.403C93.661 194.737 92.793 194.692 91.931 194.27 91.075 193.845 90.436 193.082 90.014 191.98V191.98C89.683 191.113 89.688 190.439 90.03 189.958 90.378 189.474 90.915 189.093 91.641 188.816V188.816L93.051 188.32C93.574 188.12 93.972 187.636 94.248 186.866 94.517 186.098 94.557 185.469 94.369 184.979V184.979C93.746 183.348 92.329 181.841 90.121 180.458 87.912 179.075 85.309 178.19 82.313 177.802 79.316 177.415 76.369 177.775 73.47 178.884V178.884C72.132 179.396 71.242 180.335 70.801 181.702 70.359 183.068 70.444 184.551 71.056 186.15V186.15C71.256 186.673 71.689 187.289 72.354 187.998 73.026 188.705 73.76 189.315 74.555 189.829 75.351 190.343 76.041 190.619 76.626 190.659V190.659C77.486 190.731 78.487 190.914 79.629 191.208 80.774 191.508 81.468 191.976 81.711 192.614V192.614C82.277 194.092 82.345 195.223 81.915 196.009 81.482 196.788 80.892 197.335 80.143 197.65ZM127.253 257.107C125.833 257.386 124.574 257.468 123.479 257.354 122.378 257.237 121.298 256.848 120.239 256.186V256.186C118.504 255.101 117.506 253.725 117.245 252.058 116.984 250.39 117.414 248.66 118.535 246.867V246.867C118.864 246.341 119.305 245.808 119.859 245.269V245.269L128.963 236.613C129.48 236.132 130.031 235.881 130.616 235.86 131.194 235.835 131.946 236.112 132.872 236.691V236.691C134.243 237.548 134.689 238.358 134.212 239.122V239.122C134.013 239.44 133.608 239.882 132.996 240.449V240.449L123.722 249.398C123.446 249.659 123.209 249.949 123.01 250.267V250.267C122.663 250.823 122.527 251.361 122.603 251.884 122.679 252.406 123.035 252.865 123.671 253.263V253.263C124.487 253.773 125.517 254.087 126.762 254.206 128.007 254.325 129.173 254.249 130.259 253.978V253.978L132.966 251.327C134.784 249.526 136.788 247.606 138.981 245.565V245.565C139.928 244.693 140.843 244.067 141.725 243.685 142.611 243.297 143.554 243.416 144.555 244.042V244.042C145.955 244.917 146.391 245.777 145.863 246.621V246.621C145.779 246.754 145.642 246.897 145.449 247.051 145.263 247.208 145.113 247.343 145.001 247.458V247.458L140.31 252.068C135.349 256.955 132.155 260.07 130.727 261.414V261.414C128.39 263.622 126.318 265.206 124.51 266.168 122.702 267.13 120.939 267.531 119.219 267.374 117.5 267.216 115.625 266.503 113.594 265.234V265.234C112.305 264.427 111.359 263.579 110.757 262.688 110.161 261.801 109.837 260.974 109.784 260.209 109.732 259.444 109.846 258.836 110.128 258.385V258.385C110.935 257.095 112.049 256.895 113.472 257.784V257.784C113.866 258.03 114.138 258.309 114.289 258.621 114.442 258.942 114.559 259.328 114.638 259.78V259.78C114.806 260.4 114.998 260.902 115.216 261.288 115.43 261.679 115.826 262.055 116.405 262.417V262.417C116.85 262.695 117.464 262.826 118.248 262.809 119.034 262.785 119.938 262.542 120.96 262.079 121.982 261.615 123.034 260.897 124.117 259.925V259.925ZM216.891 272.789C216.582 273.805 215.913 274.849 214.883 275.921 213.86 276.993 212.53 277.906 210.893 278.658 209.25 279.412 207.437 279.847 205.456 279.964V279.964C202.412 280.144 200.124 279.647 198.592 278.474 197.061 277.307 196.236 275.712 196.116 273.69V273.69C195.944 270.775 196.526 268.025 197.862 265.438 199.206 262.851 201.091 260.754 203.517 259.148 205.951 257.542 208.594 256.654 211.447 256.486V256.486C213.218 256.381 214.716 256.812 215.941 257.778 217.168 258.751 217.833 260.122 217.938 261.893V261.893C217.978 262.574 217.729 263.156 217.19 263.639 216.658 264.121 215.929 264.39 215.003 264.444V264.444C214.254 264.489 213.74 264.348 213.461 264.023 213.176 263.698 213.016 263.257 212.983 262.698V262.698L212.961 261.624C212.939 261.249 212.72 260.958 212.304 260.75 211.889 260.542 211.446 260.452 210.976 260.48V260.48C210.016 260.537 208.756 261.189 207.197 262.436 205.637 263.676 204.3 265.272 203.185 267.224 202.071 269.176 201.577 271.221 201.703 273.359V273.359C201.755 274.231 202.135 274.878 202.843 275.301 203.552 275.731 204.574 275.906 205.908 275.827V275.827C206.746 275.778 207.699 275.547 208.768 275.135 209.831 274.731 210.486 274.258 210.734 273.717V273.717C211.676 271.728 212.582 270.707 213.454 270.655V270.655C214.727 270.58 215.603 270.771 216.081 271.228 216.559 271.685 216.829 272.205 216.891 272.789ZM268.883 220.294L272.156 227.917C278.206 241.84 281.614 249.836 282.381 251.904V251.904C282.446 252.094 282.338 252.478 282.056 253.056 281.773 253.634 281.545 253.989 281.37 254.12V254.12C280.671 254.644 279.871 254.975 278.969 255.115 278.058 255.252 277.287 254.952 276.657 254.214V254.214C276.647 254.144 276.579 253.791 276.45 253.154 276.318 252.511 276.038 251.672 275.611 250.637V250.637C274.575 248.072 273.324 245.045 271.859 241.556 270.388 238.072 269.406 235.739 268.912 234.557V234.557L265.317 226.114C265.148 225.933 264.364 224.91 262.964 223.044V223.044C262.794 222.669 262.876 222.198 263.21 221.632 263.548 221.071 263.917 220.641 264.315 220.343V220.343C264.937 219.876 265.736 219.605 266.711 219.53 267.691 219.461 268.415 219.715 268.883 220.294ZM330.762 189.666C329.698 192.523 328.354 194.396 326.728 195.283 325.102 196.17 323.343 196.261 321.451 195.557V195.557C318.683 194.527 316.376 192.883 314.531 190.624 312.688 188.359 311.503 185.811 310.977 182.98 310.46 180.146 310.7 177.389 311.697 174.71V174.71C312.303 173.08 313.269 171.882 314.595 171.116 315.93 170.346 317.486 170.292 319.263 170.953V170.953C320.28 171.332 320.995 171.973 321.408 172.876 321.815 173.777 322.047 174.934 322.104 176.345 322.161 177.756 322.146 180.007 322.059 183.097V183.097C321.95 185.873 321.886 188.139 321.867 189.893V189.893C322.258 190.17 322.688 190.395 323.154 190.569V190.569C323.973 190.873 324.727 190.764 325.416 190.242 326.112 189.722 326.693 188.836 327.159 187.582V187.582C327.451 186.796 327.625 185.831 327.68 184.687 327.738 183.551 327.57 182.761 327.175 182.315V182.315C325.735 180.651 325.167 179.41 325.471 178.592V178.592C325.916 177.396 326.444 176.672 327.055 176.419 327.666 176.166 328.251 176.129 328.811 176.308V176.308C329.616 177 330.301 178.034 330.866 179.409 331.434 180.778 331.732 182.363 331.761 184.164 331.787 185.971 331.454 187.805 330.762 189.666ZM318.305 187.17C318.445 183.939 318.459 181.241 318.348 179.074 318.241 176.916 317.795 175.691 317.008 175.399V175.399C316.657 175.268 316.302 175.351 315.944 175.647 315.587 175.943 315.326 176.312 315.162 176.753V176.753C314.838 177.622 314.802 178.745 315.055 180.12 315.31 181.488 315.737 182.834 316.337 184.156 316.939 185.472 317.595 186.476 318.305 187.17ZM66.289 137.994C66.289 135.958 67.94 134.307 69.976 134.307 72.013 134.307 73.664 135.958 73.664 137.994 73.664 140.031 72.013 141.682 69.976 141.682 67.94 141.682 66.289 140.031 66.289 137.994ZM324.145 137.994C324.145 135.958 325.796 134.307 327.833 134.307 329.87 134.307 331.521 135.958 331.521 137.994 331.521 140.031 329.87 141.682 327.833 141.682 325.796 141.682 324.145 140.031 324.145 137.994Z" fill="#000000" data-fill-palette-color="primary"></path></svg></g></svg></g></svg></g></svg></g><defs></defs></svg><rect width="395.52" height="280" fill="none" stroke="none" visibility="hidden"></rect></g></svg></g></svg>